<?xml version="1.0" encoding="utf-8"?>
<!-- Generator: Adobe Illustrator 27.0.1, SVG Export Plug-In . SVG Version: 6.00 Build 0)  -->
<svg version="1.1" id="Ebene_1" xmlns="http://www.w3.org/2000/svg" xmlns:xlink="http://www.w3.org/1999/xlink" x="0px" y="0px"
	 viewBox="0 0 1488.75 314.93" style="enable-background:new 0 0 1488.75 314.93;" xml:space="preserve">
<style type="text/css">
	.st0{fill-rule:evenodd;clip-rule:evenodd;fill:#1D1D1B;}
</style>
<path class="st0" d="M418.36,213.94h20.72l25.39-42.86c1.35-2.32,2.96-4.62,4.82-6.94c1.88-2.29,4.06-4.41,6.53-6.32
	c2.49-1.91,5.34-3.46,8.55-4.62c3.19-1.16,6.83-1.75,10.83-1.78c0.99,0,2,0,3,0.03c1.02,0.05,1.92,0.13,2.75,0.28l13.02-21.97
	c-0.64-0.08-1.25-0.15-1.87-0.21c-0.64-0.08-1.29-0.1-1.96-0.1c-3.14,0.03-6.11,0.49-8.9,1.39s-5.46,2.11-7.99,3.66
	c-2.55,1.55-5.01,3.3-7.4,5.26c-2.38,1.93-4.73,3.97-7.03,6.09h-0.3l8.43-14.23h-19.81L418.36,213.94z M380.57,164.59
	c2.55-3.64,5.21-6.73,8.04-9.31c2.83-2.58,5.8-4.56,8.87-5.93c3.06-1.39,6.24-2.09,9.49-2.09c1.69-0.03,3.23,0.26,4.64,0.82
	c1.41,0.57,2.49,1.52,3.24,2.84c0.74,1.34,0.98,3.12,0.71,5.34c-0.28,2.24-1.24,5.03-2.87,8.33L380.57,164.59 M396.85,189.81
	c-1.73,1.96-3.67,3.61-5.82,4.95c-2.14,1.31-4.33,2.32-6.54,2.99c-2.24,0.7-4.32,1.03-6.27,1.03c-3.32-0.03-5.77-0.52-7.41-1.5
	c-1.62-0.98-2.63-2.24-3.01-3.79c-0.4-1.57-0.38-3.28,0-5.08c0.41-1.8,0.99-3.56,1.74-5.29c0.74-1.7,1.44-3.2,2.11-4.46h54.02
	l2.29-3.87c3.66-6.24,6.37-11.73,8.07-16.43c1.68-4.69,2.57-8.69,2.64-12.04c0.09-3.33-0.43-6.11-1.6-8.3
	c-1.14-2.19-2.74-3.92-4.77-5.16c-2-1.26-4.27-2.14-6.79-2.66c-2.51-0.52-5.08-0.77-7.7-0.75c-5.74,0.05-11.14,0.85-16.18,2.4
	s-9.72,3.61-14,6.19c-4.31,2.58-8.23,5.42-11.75,8.51s-6.64,6.21-9.33,9.33c-2.72,3.12-5,6.01-6.88,8.66
	c-1.85,2.66-3.28,4.82-4.27,6.52c-4.96,8.43-8.17,15.55-9.63,21.32c-1.43,5.78-1.44,10.42,0.07,13.9c1.48,3.48,4.13,5.98,7.97,7.53
	s8.55,2.29,14.14,2.27c3.39,0.03,7.09-0.41,11.12-1.32c4-0.9,8.2-2.37,12.59-4.41c4.37-2.04,8.83-4.74,13.3-8.12
	c4.5-3.38,8.9-7.53,13.21-12.45h-21.32 M352.01,147.11h13.47l9.16-15.47h-13.47l1.93-3.25c1.01-1.7,1.88-3.12,2.69-4.31
	c0.8-1.16,1.64-2.12,2.5-2.81c0.87-0.72,1.89-1.24,3.07-1.55c1.18-0.31,2.65-0.46,4.42-0.46h5.77l10.36-17.48
	c-0.55-0.05-1.27-0.1-2.11-0.15c-0.87-0.05-1.99-0.08-3.34-0.1c-1.35-0.03-3.01-0.05-5.04-0.05c-4.73-0.03-9.29,0.75-13.68,2.32
	c-4.36,1.57-8.49,4.07-12.4,7.53s-7.56,8.02-10.95,13.67l-3.92,6.65h-11.4l-9.18,15.47h11.39l-39.61,66.84h20.72L352.01,147.11
	 M334.43,102.86h-20.72l-65.84,111.09h20.72L334.43,102.86 M294.17,102.86h-78.14l-65.84,111.09h80.66l11.65-19.65h-58.9
	l17.05-28.78h51.8l11.65-19.65h-51.8l13.86-23.36h56.39L294.17,102.86 M902.86,191.56c7.66-7.53,16.67-19.91,20.1-29.52
	c1.76-4.92,2.37-9.33,1.58-12.57c-0.4-1.65-1.17-3.04-2.37-4.01c-1.21-0.98-2.76-1.47-4.59-1.47c-8.21,0-21.15,6.04-36.05,19.43
	c-4.57,4.13-10.66,9.86-13.74,13.07c-0.28,0.29-0.65,0.68-1.13,1.2c-1.12,1.19-2.92,3.11-6,6.17
	c-13.65,13.54-23.99,20.58-31.15,22.35l39.87-55.71c4.5-3.59,8.93-7.1,13.26-10.52c33.13-26.21,61.08-48.25,68.65-69.44
	c1.26-3.52,1.91-6.53,1.52-8.72c-0.2-1.14-0.7-2.11-1.58-2.79c-0.87-0.67-2-0.96-3.32-0.96c-4.79,0-10.84,3.56-17.28,8.84
	c-6.52,5.34-13.68,12.65-20.73,20.55c-14.11,15.81-27.88,34.11-35.35,44.06c-3.51,4.71-6,6.89-10.17,10.55
	c-3.23,2.83-7.43,6.52-13.83,12.87c-12.11,12-18.2,18.19-20.9,21c-0.37,0.39-1.1,1.18-2.11,2.29c-1.51,1.65-3.68,4.03-6.67,6.81
	c-3.31,3.08-6.48,4.59-8.9,4.59c-0.6,0-1.07-0.16-1.43-0.42s-0.67-0.67-0.87-1.24c-0.42-1.17-0.4-2.98,0.43-5.29
	c3.29-9.22,11.66-15.52,19.18-21.14c5.38-4.02,10.69-7.92,12.28-12.36c0.26-0.72,0.42-1.4,0.44-2.03c0.02-0.64-0.11-1.27-0.49-1.8
	s-0.92-0.87-1.54-1.08c-0.61-0.2-1.33-0.28-2.12-0.28c-3.45,0-6.84,2.24-9.81,5.17c-3,2.96-5.74,6.8-7.89,10.35
	c-2.1,3.53-6.49,7.53-12.8,13.26c-2.09,1.9-4.38,3.97-6.81,6.25c5.67-7.33,11.76-16.13,13.97-22.31c1.07-3,1.53-6.04,1.09-8.4
	c-0.22-1.19-0.69-2.28-1.49-3.07c-0.82-0.82-1.92-1.25-3.24-1.25c-5.4,0-13.27,6.33-24.51,17.27c-1.52,1.52-3.14,3.13-4.75,4.73
	c-1.4,1.39-2.78,2.76-4.11,4.01c-0.43,0.41-1.01,0.97-1.67,1.72l-0.3,0.33c-2.39,2.42-5.06,5.14-5.59,6.17
	c-10.52,11.4-19.52,19.93-27.02,25.61c-7.58,5.74-13.45,8.43-17.7,8.43c-1.37,0-2.4-0.22-3.15-0.6c-0.73-0.37-1.23-0.91-1.53-1.64
	c-0.64-1.54-0.48-4.07,0.86-7.83c2.1-5.88,6.78-13.24,14.2-22.22c15.19-3.87,26.59-8.02,34.2-12.49
	c7.67-4.55,12.77-10.13,15.12-16.73c0.52-1.46,0.8-2.83,0.81-4.12c0.01-1.3-0.25-2.5-0.8-3.6c-0.54-1.1-1.3-1.96-2.29-2.54
	c-0.98-0.58-2.13-0.85-3.4-0.85c-5.55,0-13.7,3.31-24.32,9.66c-20.3,12.14-33.43,26.29-39.21,42.48
	c-2.42,6.79-2.98,12.58-1.48,17.34c0.75,2.38,1.94,4.24,3.6,5.5c1.66,1.27,3.72,1.87,6.09,1.87c5.02,0,11.4-3,19.06-8.66
	c7.71-5.7,16.86-14.21,27.47-25.52l1.54-1.67c0.65-0.44,1.73-1.6,2.89-2.79c2.64-2.74,7.57-7.83,16.83-16.64
	c10.63-10.06,15.45-12.35,17.41-12.35c0.3,0,0.5,0.06,0.63,0.13c0.12,0.07,0.22,0.16,0.28,0.3c0.07,0.14,0.12,0.34,0.12,0.62
	s-0.06,0.63-0.21,1.03c-1.33,3.73-6.9,10.44-18.67,24.54c-7.48,8.96-17.32,20.74-29.82,36.34l-1.51,1.89l14.24-1.8l0.24-0.26
	c12.21-13.27,23.6-25.32,34.75-35.73c-1.33,2.19-2.47,4.58-3.44,7.31c-0.55,1.55-0.81,2.98-0.8,4.27c0.01,1.29,0.28,2.45,0.78,3.43
	c0.51,0.98,1.25,1.76,2.16,2.28c0.91,0.53,1.95,0.79,3.07,0.79c3.68,0,8.44-2.15,14.01-7.82c0.63-0.66,1.36-1.42,2.11-2.21
	c1.5-1.56,3.1-3.23,4.12-4.31c0.7-0.75,1.75-1.85,3.11-3.29c2.08-2.19,4.86-5.13,8.37-8.62c1.85-1.81,3.59-3.56,5.32-5.3
	c3.4-3.43,6.8-6.85,11.12-10.78l-32.78,43.16c-0.1-0.04-0.19-0.08-0.29-0.11c-0.47-0.17-1-0.24-1.52-0.24
	c-1.75,0-3.48,0.97-4.93,2.41c-1.46,1.45-2.73,3.46-3.55,5.77c-0.48,1.36-0.9,2.78-1.05,4.11c-0.12,1.09-0.05,2.19,0.38,3.17
	l-52.54,69.95l14.13-2.42l48.06-64.86c9.6-2.12,21-9.74,31.96-20.04c4.68-4.4,11.43-11.17,13.35-13.56
	c-0.07,0.13-0.14,0.27-0.21,0.43c-0.89,1.78-2.43,4.84-4.66,11.09c-2.35,6.59-3.39,12.17-2.88,16.17c0.26,2.01,0.92,3.71,2.1,4.91
	c1.2,1.22,2.82,1.83,4.78,1.83c10.06,0,20.43-8.81,28.71-17.09c0.58,0.12,1.24,0.1,1.91,0.1c7.15,0,14.95-4.32,21.64-10.71
	c4.3-4.12,5.95-5.85,6.65-6.68c0.28-0.33,0.63-0.69,1.1-1.18c2.64-2.73,7.57-7.82,16.84-16.65c10.64-10.06,15.45-12.35,17.41-12.35
	c0.3,0,0.5,0.06,0.63,0.13c0.12,0.07,0.22,0.16,0.28,0.3c0.07,0.14,0.12,0.34,0.12,0.62s-0.06,0.63-0.21,1.03
	c-1.33,3.73-6.9,10.44-18.67,24.54c-7.48,8.96-17.32,20.75-29.82,36.34l-1.51,1.89l14.24-1.8l0.24-0.26
	c12.21-13.27,23.6-25.32,34.75-35.73c-1.33,2.19-2.47,4.58-3.44,7.31c-0.55,1.55-0.81,2.98-0.8,4.27c0.01,1.29,0.27,2.45,0.78,3.43
	s1.25,1.76,2.16,2.28c0.91,0.53,1.95,0.79,3.07,0.79c3.68,0,8.44-2.15,14.01-7.82c0.62-0.66,1.35-1.42,2.1-2.2
	c1.52-1.58,3.14-3.27,4.16-4.37c0.49-0.54,1.2-1.26,2.16-2.27c2.43-2.52,6.41-6.66,12.93-12.98c9.08-8.79,17.16-15.5,21.49-15.5
	c0.39,0,0.61,0.04,0.74,0.09c0.09,0.04,0.09,0.06,0.09,0.06c0.05,0.1,0.14,0.58-0.35,1.94c-0.93,2.61-9.65,13.35-27.23,34.92
	c-6.07,7.45-13.12,16.1-21.09,25.95l-1.52,1.88l14.62-1.8l0.25-0.29c4.37-5.2,18.43-20.96,32.4-35.42
	c6.99-7.23,13.93-14.12,19.63-19.2c5.92-5.28,9.91-8.05,11.46-8.14c0.2,0.04,0.29,0.1,0.34,0.14c0.04,0.04,0.09,0.09,0.12,0.21
	c0.08,0.31,0.04,0.92-0.34,1.98c-2.08,5.82-21.04,29.15-34.82,46.09c-5.34,6.55-9.76,11.98-11.69,14.57l-1.38,1.85l14.16-1.79
	l0.25-0.3c4.11-4.96,17.95-20.71,32-35.23c7.03-7.26,14.09-14.19,20.01-19.3c6.16-5.33,10.59-8.22,12.6-8.22
	c0.32,0,0.49,0.06,0.56,0.1c0.05,0.03,0.06,0.05,0.07,0.07c0.04,0.08,0.06,0.33-0.07,0.72c-1.18,3.31-5.57,7.96-11.42,14.1
	c-8.44,8.87-19.3,20.24-23.76,32.74c-1.66,4.63-2.54,8.69-2.28,11.64c0.13,1.49,0.57,2.81,1.45,3.76c0.45,0.48,0.99,0.85,1.62,1.09
	c0.62,0.24,1.32,0.36,2.07,0.36c5.41,0,13.7-6.89,26.59-19.2c3.62-3.46,7.67-7.36,10.75-10.46c-0.92,2.06-1.76,4.12-2.52,6.26
	c-1.95,5.47-3.46,11.14-3.31,15.5c0.08,2.19,0.58,4.17,1.79,5.62c0.6,0.73,1.37,1.31,2.31,1.69c0.93,0.39,2,0.58,3.22,0.58
	c6.26,0,18.75-11.14,26.6-18.41c-0.05,0.12-0.09,0.23-0.13,0.35c-2.38,6.65-3.23,11.07-2.75,13.87c0.25,1.46,0.87,2.56,1.87,3.27
	c0.99,0.69,2.21,0.92,3.48,0.92c5.25,0,15.02-8.11,26.85-19.45c5.07-4.98,11.85-11.78,14.23-14.33c0.22-0.24,0.5-0.53,0.85-0.9
	c1.65-1.74,4.83-5.08,11.34-11.5c14.01-13.84,20.12-18.39,24.46-18.39c0.2,0,0.33,0.04,0.41,0.09c0.07,0.04,0.14,0.11,0.19,0.23
	c0.12,0.28,0.18,0.9-0.21,2.01c-1.62,4.53-18.09,23.71-32.44,40.37c-7.78,9.03-14.65,17.01-17.04,20.31l-1.32,1.81l14.8-1.77
	l0.25-0.31c4.61-5.66,19.4-21.4,34.09-35.75c15.37-15,29.19-27,32.78-27c0.27,0,0.42,0.05,0.49,0.09c0.06,0.03,0.1,0.08,0.13,0.15
	c0.08,0.18,0.12,0.62-0.14,1.37c-0.76,2.12-4.41,6-9.83,11.67c-8.74,9.15-20.97,21.91-25.44,34.44c-1.58,4.41-2.41,8.46-2.13,11.46
	c0.15,1.51,0.59,2.86,1.46,3.85c0.44,0.5,0.98,0.89,1.61,1.15s1.34,0.38,2.09,0.38c4.54,0,13.44-7.13,24.58-17.5
	c2.36-2.19,9.54-9.27,13.91-13.83c-0.4,0.91-0.85,2-1.32,3.32c-2.09,5.86-3.79,12.68-3.55,18.09c0.12,2.71,0.72,5.18,2.12,7
	c0.71,0.92,1.61,1.65,2.72,2.16c1.11,0.5,2.39,0.76,3.86,0.76c9.17,0,20.23-7.14,37.16-23.78c2.12-2.08,4.17-4.12,5.9-5.88
	c-0.34,0.8-0.69,1.68-1.02,2.62c-2.28,6.37-3.58,12.96-3.05,18.03c0.26,2.54,1,4.79,2.41,6.42c0.71,0.82,1.58,1.47,2.61,1.92
	c1.03,0.44,2.21,0.67,3.52,0.67h0.01h0.02c8.64-0.25,17.3-5.08,30.04-16.23c7.27-6.36,18.47-17.82,18.94-19.13
	c0.19-0.53,0.32-1.14,0.17-1.68c-0.08-0.3-0.25-0.6-0.55-0.81c-0.29-0.21-0.61-0.28-0.9-0.28c-0.69,0-1.41,0.78-1.59,0.95
	c-0.5,0.47-1.17,1.19-2.04,2.1c-2.16,2.27-5.68,5.98-11.29,11.29c-15.79,14.53-26.23,18.89-30.53,18.91
	c-1.24-0.06-2.09-0.29-2.65-0.63c-0.52-0.33-0.87-0.8-1.04-1.57c-0.36-1.68,0.16-4.57,1.87-9.35c0.88-2.48,2.07-4.96,3.32-7.51
	c5.79-1.53,15.8-4.98,25.25-10.26c9.65-5.4,18.92-12.83,22.29-22.28c1.25-3.51,1.49-6.68,0.59-9.05c-0.46-1.2-1.22-2.2-2.27-2.88
	c-1.04-0.68-2.33-1.02-3.79-1.02c-9.85,0-24.65,9.78-39.03,23.32c-1.49,1.4-5.84,5.61-8.44,8.18c-0.12,0.12-0.47,0.49-1.36,1.45
	c-1.66,1.78-5.41,5.8-14.43,14.43c-11.69,11.18-22.21,17.19-27.87,17.19c-1.17,0-2.02-0.18-2.62-0.49c-0.57-0.29-0.95-0.7-1.17-1.27
	c-0.49-1.21-0.34-3.27,0.78-6.41c4.89-13.68,13.77-26.61,22.74-36.12c4.48-4.75,8.96-8.63,12.95-11.31c4.03-2.71,7.41-4.1,9.71-4.1
	c0.57,0,0.94,0.11,1.19,0.25c0.23,0.13,0.39,0.31,0.49,0.52c0.22,0.47,0.22,1.21-0.07,2.05c-0.79,2.2-1.98,2.82-3.46,3.6
	c-1.76,0.92-3.77,1.99-5.06,5.62c-0.59,1.64-0.9,3.38-0.53,4.8c0.19,0.74,0.58,1.41,1.24,1.89c0.64,0.47,1.46,0.69,2.4,0.69
	c1.23,0,2.44-0.45,3.55-1.13c1.12-0.68,2.18-1.62,3.14-2.69c1.92-2.13,3.53-4.85,4.4-7.27c0.72-2.02,1.08-3.84,1.07-5.46
	c0-1.63-0.37-3.06-1.12-4.25s-1.84-2.07-3.2-2.65c-1.35-0.57-2.95-0.84-4.75-0.84c-5.1,0-10.8,1.78-17.17,5.57
	c-6.38,3.79-13.47,9.61-21.38,17.77c-4.47,4.62-6.85,7.11-8.16,8.49c-0.26,0.27-0.7,0.74-1.51,1.6c-1.66,1.76-4.92,5.22-11.91,12.01
	c-11.38,11.06-21.28,19.12-24.73,19.12c-0.18,0-0.25-0.05-0.3-0.11c-0.08-0.08-0.18-0.26-0.24-0.59c-0.11-0.69,0.01-1.72,0.41-2.85
	c1.3-3.63,7.99-12.12,21.27-27.11c4.93-5.56,11.06-12.73,14.08-21.19c0.94-2.62,1.53-5.63,1.27-8.05c-0.12-1.21-0.47-2.37-1.19-3.25
	c-0.37-0.44-0.82-0.81-1.37-1.05c-0.55-0.25-1.16-0.37-1.82-0.37c-7.21,0-27.75,20.02-40.62,32.59
	c5.09-6.37,10.15-13.57,12.22-19.38c1.31-3.66,1.97-6.83,1.62-9.15c-0.18-1.19-0.63-2.23-1.47-2.97c-0.85-0.74-1.97-1.08-3.27-1.08
	c-7.34,0-17.83,9.3-30.78,22.63c-0.61,0.62-1.32,1.34-2.07,2.1c-2.62,2.67-5.84,5.94-7.5,7.76c-0.25,0.27-0.6,0.64-1.12,1.18
	c-0.51,0.53-1.16,1.21-2,2.08c-7.99,8.24-15.44,15.5-21.53,20.69c-6.31,5.37-10.75,8.14-12.89,8.14c-0.48,0-0.74-0.08-0.88-0.15
	c-0.12-0.06-0.16-0.12-0.2-0.2c-0.09-0.25-0.09-0.79,0.25-1.74c2.94-8.24,38.35-51.26,46.27-59.61l1.69-1.79l-10.99,0.63
	c-1.56,0.1-2.71,0.65-3.98,1.87c-1.21,1.16-2.61,3.02-4.63,5.69c-1.07,1.41-2.33,3.07-3.86,5.04c0.14-0.36,0.27-0.73,0.4-1.1
	c1.19-3.33,1.76-6.51,1.26-8.93c-0.26-1.24-0.81-2.33-1.76-3.11c-0.94-0.78-2.18-1.16-3.66-1.16c-6.29,0-14.12,3.22-22.19,8.35
	c-8.1,5.15-16.57,12.3-24.18,20.36c-1.35,1.44-2.28,2.38-2.94,3.04c-0.13,0.14-0.21,0.21-0.28,0.27c-0.39,0.32-1.05,1-2.23,2.2
	c-2.2,2.24-6.5,6.6-15.29,15.1c-10.01,9.48-18.1,15.26-20.71,15.26c-0.22,0-0.29-0.06-0.33-0.11c-0.07-0.09-0.17-0.28-0.21-0.68
	c-0.08-0.79,0.12-1.95,0.57-3.22c2.32-5.39,8.25-12.09,14.86-19.51c7.8-8.77,16.47-18.48,19.64-27.36c1.57-4.41,2.06-7.71,1.61-9.99
	c-0.23-1.16-0.71-2.11-1.47-2.76c-0.77-0.66-1.72-0.94-2.74-0.94c-4.63,0-12.58,6.25-20.41,13.43c-6.8,6.23-13.96,13.61-19.73,19.66
	c4.73-6.5,9.61-13.92,12.09-20.86c1.39-3.89,1.94-6.85,1.5-8.91c-0.22-1.07-0.73-1.94-1.55-2.53c-0.81-0.57-1.81-0.8-2.89-0.8
	c-4.15,0-11.23,5.64-18.34,12.23c-6.86,6.36-14.28,14.16-20.32,20.54c5.38-7.15,10.98-15.24,13.48-22.25
	c1.11-3.1,1.38-5.7,0.59-7.59c-0.41-0.98-1.08-1.73-2-2.23c-0.9-0.49-1.98-0.71-3.18-0.71c-4.67,0-12.18,4.5-24.61,17.04
	c-2.21,2.23-4.21,4.25-6,6.06c-4.34,4.37-7.44,7.49-9.06,9.2c-0.41,0.43-1.02,1.1-1.79,1.94c-1.51,1.65-3.68,4.03-6.67,6.81
	c-3.31,3.08-6.48,4.59-8.9,4.59c-0.6,0-1.07-0.16-1.43-0.42s-0.67-0.67-0.88-1.24c-0.42-1.17-0.4-2.98,0.43-5.29
	c3.29-9.22,11.66-15.52,19.18-21.14c5.38-4.02,10.69-7.92,12.28-12.36c0.26-0.72,0.42-1.4,0.44-2.03c0.02-0.64-0.11-1.27-0.49-1.8
	c-0.37-0.53-0.92-0.87-1.54-1.08c-0.61-0.2-1.33-0.28-2.12-0.28c-3.45,0-6.84,2.24-9.81,5.17c-3,2.96-5.74,6.8-7.89,10.35
	c-2.1,3.53-6.49,7.53-12.8,13.26c-2.09,1.9-4.37,3.97-6.81,6.25c5.67-7.33,11.76-16.13,13.97-22.31c1.07-3,1.53-6.04,1.09-8.4
	c-0.22-1.19-0.69-2.28-1.49-3.07c-0.82-0.82-1.92-1.25-3.24-1.25c-5.4,0-13.27,6.33-24.51,17.27c-1.55,1.55-3.21,3.21-4.87,4.85
	c-4,3.97-7.97,7.91-10.05,10.14c-0.34,0.36-0.9,0.94-1.91,1.98c-0.47,0.48-1.02,1.05-1.69,1.74
	C915.65,186.9,908.34,191.46,902.86,191.56 M1292.86,184.36c3.88-6.49,10.84-14.9,18.03-21.94c8.07-7.9,15.92-13.56,20.03-13.56
	c0.47,0,0.78,0.08,0.96,0.17c0.16,0.08,0.26,0.19,0.33,0.35c0.16,0.4,0.18,1.24-0.37,2.78c-3.03,8.47-10.26,16.16-18.33,21.99
	C1306.33,179.33,1298.62,182.96,1292.86,184.36 M779.1,146.26c0.49-1.39,0.48-2.14,0.33-2.48c-0.06-0.13-0.14-0.23-0.29-0.3
	c-0.17-0.09-0.46-0.16-0.91-0.16c-2.94,0-8.21,2.94-16.09,9.48c-7.05,5.88-14.57,13.33-22.57,22.37
	c8.84-3.13,16.97-7.31,24.38-12.54C772.36,156.71,777.32,151.25,779.1,146.26 M870.79,200.88c3.58-10.03,12.24-23.09,21.56-33.66
	c4.65-5.28,9.44-9.9,13.8-13.19c4.42-3.34,8.21-5.16,10.9-5.16c0.89,0,1.43,0.25,1.78,0.6c0.37,0.37,0.64,0.96,0.76,1.82
	c0.23,1.77-0.24,4.32-1.27,7.19c-3.89,10.88-12.37,23.45-21.62,33.31c-4.62,4.92-9.4,9.14-13.86,12.12c-4.49,3-8.52,4.66-11.66,4.66
	c-0.47,0-0.78-0.1-1-0.26c-0.21-0.15-0.41-0.41-0.53-0.93C869.4,206.27,869.59,204.25,870.79,200.88 M1140.58,156.29
	c-3.13,8.76-13.16,21.86-23.78,32.84c-5.29,5.47-10.68,10.36-15.35,13.88c-4.8,3.61-8.57,5.54-10.7,5.54
	c-0.51,0-0.77-0.14-0.92-0.28c-0.16-0.16-0.32-0.46-0.39-1.01c-0.14-1.13,0.18-2.89,1-5.17c3.06-8.57,11.86-21.93,21.72-33.18
	c4.91-5.61,10.05-10.66,14.82-14.29c4.82-3.68,9.07-5.76,12.24-5.76c0.74,0,1.2,0.19,1.51,0.45c0.32,0.26,0.56,0.68,0.69,1.32
	C1141.7,151.95,1141.42,153.92,1140.58,156.29 M876.71,139.69c13.09-18.1,26.55-36.55,38.5-50.85c6.49-7.77,12.5-14.28,17.74-18.85
	c5.32-4.63,9.61-7.04,12.68-7.04c0.7,0,1.22,0.1,1.59,0.25c0.35,0.15,0.56,0.34,0.69,0.58c0.14,0.25,0.23,0.63,0.2,1.21
	c-0.03,0.58-0.19,1.32-0.52,2.24c-7.85,22-40.55,48.19-62.97,66.11C881.79,135.59,879.12,137.72,876.71,139.69 M814.01,49.08
	c-3.45,1.5-6.91,3.17-10.4,5.03c15.39,10.57,23.06,22.58,23.06,36c0,11.29-5.3,21.14-15.87,29.49c-10.56,8.4-22.91,12.56-37.1,12.56
	c-5.52,0-11.51-0.95-17.86-2.84c-6.36-1.85-9.51-3.66-9.51-5.33c0.16-0.54,0.58-0.81,1.21-0.81c0.53,0,1.31,0.27,2.47,0.81
	c6.36,3.07,12.77,4.61,19.23,4.61c11.72,0,21.75-4.29,30.11-12.96c8.35-8.63,12.56-18.97,12.56-30.94
	c0-10.34-4.31-19.56-12.93-27.69c-22.28,14.32-43.4,39.43-63.42,75.43c-12.08,21.82-23.17,37.49-33.26,47.11
	c-10.04,9.62-24.17,18.29-42.3,26.06c-21.44,8.99-40.61,13.5-57.43,13.5c-13.77,0-25.17-2.71-34.31-8.13s-13.71-12.19-13.71-20.32
	c0-4.47,1.58-8.36,4.68-11.65c3.15-3.25,6.88-4.88,11.19-4.88c6.25,0,9.35,2.98,9.35,8.99c0,2.98-1.05,5.56-3.15,7.68
	c-2.1,2.12-4.68,3.16-7.78,3.16c-5.31,0-7.88-2.35-7.67-7.13c0.1-1.94-0.1-2.89-0.63-2.89c-1.63,0-2.47,2.3-2.47,7
	c0,7.32,4.2,13.42,12.56,18.25s18.91,7.27,31.63,7.27c22.49,0,42.87-7.14,61.11-21.45c7.98-6.23,14.82-12.65,20.49-19.15
	c6.15-7.05,19.6-24.16,40.3-51.35c10.4-13.41,22.59-26.83,36.67-40.33c14.03-13.51,26.01-23.17,35.83-29
	c-16.02-11.7-39.51-17.57-70.51-17.57c-43.29,0-80.97,13.46-112.96,40.33c-26.27,22.09-39.41,42.86-39.41,62.33
	c0,9.89,3.68,17.75,11.09,23.58c7.36,5.83,17.39,8.72,30,8.72c20.6,0,41.93-8.49,63.94-25.52c22.02-17.03,33-33.6,33-49.64
	c0-12.78-7.62-19.19-22.91-19.19c-15.34,0-31.73,7.36-49.23,22.04s-26.22,28.46-26.22,41.33c0,3.21,1.26,5.92,3.73,8.22
	s5.36,3.43,8.62,3.43c1.79,0,2.68,0.41,2.68,1.17c0,0.72-1,1.08-2.94,1.08c-4.94,0-9.14-1.94-12.51-5.78
	c-3.41-3.79-5.1-8.54-5.1-14.09c0-13.73,8.77-27.15,26.32-40.2s35.57-19.6,54.01-19.6c17.65,0,26.48,7,26.48,21.05
	c0,17.12-11.24,34.42-33.68,51.9c-22.49,17.48-44.66,26.2-66.52,26.2c-14.24,0-25.64-3.7-34.2-11.07
	c-8.56-7.36-12.87-17.21-12.87-29.59c0-24.93,16.39-47.74,49.18-68.34s69.04-30.89,108.76-30.89c30.16,0,55.48,5.78,76.03,17.34
	c3.81-2.05,7.6-3.88,11.36-5.51C814.56,46.19,815.95,48.28,814.01,49.08"/>
</svg>
