<?xml version="1.0" encoding="utf-8"?>
<!-- Generator: Adobe Illustrator 27.0.1, SVG Export Plug-In . SVG Version: 6.00 Build 0)  -->
<svg version="1.1" id="Ebene_1" xmlns="http://www.w3.org/2000/svg" xmlns:xlink="http://www.w3.org/1999/xlink" x="0px" y="0px"
	 viewBox="0 0 1489.33 315.5" style="enable-background:new 0 0 1489.33 315.5;" xml:space="preserve">
<style type="text/css">
	.st0{fill-rule:evenodd;clip-rule:evenodd;fill:#1D1D1B;}
</style>
<path class="st0" d="M745.2,147.37c16.31-12.71,29.94-24.97,40.92-36.69c11.69-12.48,19.55-23.47,23.49-32.98
	c0.97-2.34,1.36-4.09,1.24-5.38c-0.08-0.51-0.23-0.91-0.49-1.18c-0.24-0.24-0.57-0.35-0.98-0.35c-1.91,0-4.6,1.63-8.16,4.77
	c-3.72,3.28-8.31,8.19-13.79,14.75C776.92,102.9,762.8,121.96,745.2,147.37z M962.11,208.13c0.12-0.77,0.26-1.44,0.38-1.9
	c0.07-0.55,0.28-1.09,0.45-1.5c1.07-2.58,2.88-5.03,5.34-7.09c2.51-2.11,5.06-3.26,7.35-3.26h0.02
	c6.15-6.62,11.49-13.11,15.98-19.36c4.47-6.16,7.66-11.46,9.45-15.77c1.59-3.85,2.29-6.74,2.22-8.91c-0.07-0.93-0.27-1.64-0.67-2.11
	c-0.17-0.2-0.38-0.35-0.63-0.44c-0.28-0.11-0.6-0.16-0.97-0.16c-2.47,0-6.9,3.35-13.37,9.75c-6.7,6.69-14.4,15.62-23.15,26.91
	c-4.26,5.45-7.67,10.16-10.33,14.37c-2.73,4.19-4.62,7.63-5.79,10.46c-1.06,2.56-1.54,4.29-1.3,5.45v0.02v0.02
	c0.03,0.21,0.09,0.4,0.18,0.55c0.08,0.13,0.18,0.24,0.31,0.32c0.35,0.22,0.83,0.3,1.45,0.3c1.38,0,3.23-0.61,5.51-1.9
	C956.87,212.52,959.44,210.62,962.11,208.13 M602.34,188.88c6.54-1.8,13.5-6.21,20.99-13.11c8.02-7.38,13.56-14.63,16.46-21.64
	c0.77-1.87,1.05-3.39,0.98-4.79c-0.05-0.53-0.15-0.96-0.34-1.24c-0.06-0.08-0.12-0.15-0.21-0.19c-0.09-0.04-0.19-0.06-0.3-0.06
	c-1.23,0-3.05,1.05-5.49,2.99c-2.6,2.07-5.83,5.15-9.66,9.23C617.38,167.92,609.88,177.6,602.34,188.88 M763.74,188.88
	c6.53-1.8,13.5-6.21,20.99-13.11c8.02-7.38,13.56-14.63,16.46-21.64c0.77-1.87,1.05-3.39,0.98-4.79c-0.05-0.53-0.15-0.96-0.34-1.24
	c-0.06-0.08-0.12-0.15-0.21-0.19c-0.09-0.04-0.19-0.06-0.3-0.06c-1.23,0-3.05,1.05-5.49,2.99c-2.6,2.07-5.83,5.15-9.66,9.23
	C778.78,167.92,771.28,177.6,763.74,188.88 M711.66,165.1c0.17-0.17,0.34-0.34,0.51-0.5l7.98-7.71
	c6.99-6.82,17.47-18.74,31.52-35.74l1.65-2.04c1.39-1.72,2.49-3.08,3.4-4.18c15.47-18.68,27.25-31.62,35.45-39.1
	c8.31-7.49,14.89-11.24,19.7-11.24c1.7,0,3.08,0.36,4.13,1.04c1.09,0.71,1.85,1.77,2.23,3.18c0.7,2.59,0.12,6.22-1.8,10.87
	c-3.88,9.38-13.16,21.51-27.86,36.38c-14.67,14.92-31.07,28.6-49.34,41.04l-45.98,59.62c0.09,0,0.18,0,0.27,0h2.55
	c4.39,0,10.81-2.97,19.37-8.92c8.6-5.98,19.23-14.91,31.65-26.69l4.58-4.35c2.59-2.47,5.03-4.77,7.31-6.89
	c3.86-4.13,8.27-8.23,13.24-12.29c6.32-5.13,12.17-9.13,17.64-12.01c5.55-2.92,10.14-4.43,13.69-4.43c1.72,0,3.09,0.43,4.12,1.25
	c1.04,0.82,1.76,2.02,2.14,3.63c0.61,2.96-0.04,6.95-2.17,12.08c-3.33,8.05-9.5,15.61-18.41,22.4c-8.85,6.84-18.6,11.58-29.19,14.1
	c-3.41,5.34-5.78,9.24-7.3,11.81c-1.52,2.57-2.56,4.53-3.12,5.88c-0.33,0.8-0.53,1.48-0.59,2.05c-0.05,0.44-0.01,0.8,0.15,1.07
	c0.16,0.25,0.42,0.43,0.77,0.56c0.46,0.17,1.07,0.24,1.82,0.24c3.92,0,8.89-1.85,14.9-5.62c6.05-3.84,15.62-11.53,28.68-23.17
	c4.25-3.73,10.03-8.95,17.23-15.53c3.22-2.93,6.15-5.55,8.79-7.87c2.15-2.08,4.43-4.15,6.85-6.2c6.09-5.13,11.94-9.13,17.54-12.13
	c5.69-3.05,10.27-4.55,13.75-4.55c1.95,0,3.53,0.38,4.73,1.09c1.26,0.73,2.13,1.81,2.64,3.21l0.01,0.02l0.01,0.02
	c0.8,2.71,0.29,6.59-1.8,11.63c-1.53,3.69-3.58,6.74-6.06,9.29c-2.59,2.66-4.92,3.81-7.07,3.81c-1.05,0-1.91-0.24-2.57-0.72
	c-0.67-0.49-1.15-1.23-1.37-2.27c-0.51-1.72-0.19-3.98,0.96-6.76c1.17-2.82,2.94-5.38,5.41-7.69c2.18-2.04,4.44-3.38,6.73-4.03
	c-0.09-0.1-0.19-0.18-0.3-0.24c-0.34-0.19-0.67-0.41-1.08-0.41c-2.22,0-5.3,2.1-9.45,6.03c-4.31,4.09-9.79,10.28-16.51,18.7
	c-6.37,7.94-12.15,15.76-17.29,23.32c-5.16,7.65-8.26,12.7-9.38,15.42c-0.85,2.05-1.21,3.64-0.93,4.66
	c0.05,0.19,0.13,0.35,0.24,0.48c0.11,0.14,0.25,0.25,0.42,0.33c0.42,0.22,0.98,0.31,1.66,0.31c5.36,0,19.6-11.45,42.84-34.11
	c3.14-3.11,5.59-5.47,7.39-7.21c0.57-0.55,1.14-1.1,1.69-1.63c1-1.16,2.62-2.76,4.94-4.85c1-0.88,1.93-1.7,2.79-2.47
	c0.83-0.77,1.63-1.51,2.41-2.23c0.39-0.38,0.77-0.75,1.13-1.11l7.42-7.1c7.27-6.94,15.86-16.74,25.88-29.39l40.07-50.7l18.09-1.1
	l-25.36,32.65h10.82l-4.11,7.18h-12.87l-39.89,51.45c-8.72,11.18-16.2,21.23-22.32,30.05c-6.08,8.76-9.67,14.43-10.79,17.15
	c-0.12,0.3-0.2,0.54-0.22,0.75c-0.01,0.1,0,0.19,0.04,0.26l0.08,0.13l0.01,0.09c0,0.01,0,0.02,0.01,0.03l0.01,0.01
	c0.11,0.05,0.27,0.05,0.46,0.05c1.19,0,4.19-2.12,9.19-6.31c5.11-4.34,13.28-11.79,24.49-22.47l3-2.97
	c7.96-7.56,14.7-13.79,20.21-18.7l9.6-9.27c4.88-4.71,8.88-8.81,12.09-12.28l0.17-0.18l19-2.06l-36.42,48.34
	c-5.45,7.2-9.62,12.79-12.6,17.01c-2.94,4.16-4.67,6.85-5.07,7.82c-0.22,0.52-0.39,0.84-0.28,1.1l0.04,0.11l0.01,0.11
	c0.02-0.01,0.05-0.01,0.08-0.01c1.34,0,4.63-2.25,10.01-6.8c5.58-4.72,12.95-11.54,22.12-20.48c15.82-15.43,26.43-25.38,31.81-29.98
	c3.25-2.82,5.89-4.8,7.82-5.94c4.31-3.18,8.51-5.74,12.6-7.7c5.23-2.54,9.68-3.92,13.16-3.92c2.44,0,4.39,0.55,5.85,1.6
	c1.48,1.07,2.48,2.66,2.96,4.76c0.84,4.08-0.17,9.69-3.18,16.93c-2.59,6.26-6.27,12.53-10.91,18.67
	c-4.34,5.7-10.09,12.13-17.35,19.28c5.01-2.24,12.34-8.08,21.96-17.31l4.12-3.98c4.59-4.41,8.69-8.28,12.31-11.64
	c0.03-0.04,0.06-0.08,0.09-0.12c0.94-1.13,2.42-2.64,4.38-4.53c7.88-7.84,14.05-13.57,18.62-17.31c4.6-3.75,8.01-5.62,9.94-5.62
	c0.59,0,1.1,0.12,1.53,0.36c0.45,0.24,0.83,0.6,1.12,1.08c0.52,0.83,0.8,2.06,0.8,3.71c0,3.05-1.04,7.11-3.09,12.06
	c-1.45,3.5-3.21,7-5.18,10.63c-0.99,1.77-2.05,3.56-3.16,5.36c10.18-10.49,18.61-18.44,25.29-23.85c7.84-6.36,13.59-9.6,17.22-9.6
	c0.86,0,1.63,0.13,2.29,0.39c0.69,0.27,1.27,0.68,1.75,1.21c0.9,1.01,1.43,2.51,1.54,4.49c0.21,3.67-0.92,8.75-3.6,15.21
	c-1.97,4.76-4.83,9.78-8.56,15.05c-3.72,5.23-9.94,12.59-18.6,22.31c-0.28,0.3-0.56,0.61-0.86,0.94c-0.97,1.08-2.12,2.34-3.38,3.67
	c-3.82,4.13-6.11,7.04-6.71,8.5c-0.21,0.51-0.31,0.85-0.21,1.1l0.03,0.06l0.01,0.06c0,0.02,0.01,0.04,0.02,0.06
	c0.07,0.04,0.17,0.03,0.3,0.03c1.19,0,4.02-1.87,8.54-5.45c4.7-3.72,10.68-9.05,18.02-16l4.96-4.72c3.54-3.37,6.86-6.5,9.97-9.4
	c2.5-2.65,6.78-1.17,3.72,1.86c-2,1.91-4.08,3.92-6.25,6.03l-3.39,3.35l-1.42,1.37c-21.41,20.83-34.92,31.14-40.3,31.14
	c-0.83,0-1.57-0.14-2.22-0.4c-0.67-0.27-1.25-0.69-1.73-1.24c-0.9-1.04-1.46-2.59-1.6-4.69c-0.39-3.81,0.74-8.89,3.36-15.23
	c1.88-4.52,4.37-9.03,7.62-13.68c3.17-4.49,8.26-10.61,15.34-18.34c0.84-0.91,1.79-1.92,2.85-3.04c1.55-1.64,3.32-3.52,5.31-5.67
	c5.54-5.87,8.57-9.27,9.03-10.37c0.23-0.57,0.3-0.94,0.24-1.22c0-0.04-0.02-0.07-0.05-0.1c-0.06-0.05-0.13-0.08-0.22-0.11
	c-3.99,0.1-12.43,6.68-25.36,19.32c-13.27,13.04-29.28,30.67-48.1,53.03l-0.18,0.21l-23.44,1.89l25.48-30.44
	c7.79-9.32,13.62-16.52,17.53-21.49c3.78-4.89,6.02-8.07,6.68-9.66c0.27-0.65,0.36-1.19,0.41-1.63c0-0.01,0-0.02,0-0.02
	c-0.09,0.03-0.2,0.07-0.31,0.12c-5.18,4.47-11.86,10.7-20.01,18.67c-7.05,6.96-12.54,12.19-16.48,15.92
	c-6.04,5.76-11.17,9.89-15.32,12.39c-4.24,2.56-8.2,3.82-11.69,3.82h-0.69c-5.45,4.44-10.01,7.64-13.58,9.38
	c-3.76,1.79-7.35,2.8-10.84,2.8c-2.53,0-4.56-0.62-6.08-1.86s-2.55-3.1-3.04-5.65c-0.92-4.82,0.21-11.04,3.41-18.78
	c1.39-3.35,3.15-6.77,5.3-10.28l-3.2,3.16c-1.34,1.32-2.51,2.49-3.53,3.5c-11.85,11.59-20.59,19.44-26.17,23.55
	c-5.76,4.34-10.36,6.35-13.78,6.35c-1.69,0-3-0.44-3.98-1.24s-1.63-1.98-1.95-3.53c-0.53-2.95,0.33-7.06,2.56-12.44
	c2.79-6.74,11.38-19.47,26-38.31l0.17-0.22l-1.45,1.37c-1.24,1.12-2.78,2.61-4.58,4.35c-1.17,1.13-2.19,2.07-3.06,2.85
	c-1.16,1.12-2.35,2.29-3.58,3.49l-3.89,3.82c-4.01,3.93-7.26,7.11-9.72,9.49l-2.02,1.87c-19.62,18.95-32.18,28.27-37.56,28.27
	c-1.74,0-3.08-0.45-4.05-1.3s-1.58-2.13-1.82-3.87c-0.47-3.06,0.42-7.41,2.75-13.03c2.58-6.24,10.14-17.97,22.7-35.19
	c0.77-1.07,1.5-2.07,2.18-3c-1.19,1.15-2.46,2.4-3.82,3.74c-3.99,3.9-6.9,6.52-8.71,7.92c-0.5,0.5-1.01,1.01-1.53,1.52
	c-2.42,2.49-4.22,4.23-5.39,5.35l-4.55,4.47c-22.97,22.57-38.33,33.63-45.96,33.63c-2.57,0-4.63-0.62-6.18-1.86
	c-1.56-1.24-2.61-3.1-3.09-5.65c-0.92-4.82,0.31-11.29,3.67-19.4c1.58-3.82,3.4-7.49,5.5-11.05c-0.76,0.71-1.48,1.37-2.14,1.98
	c-16.28,14.83-27.97,24.55-35.01,29.03c-7.29,4.69-13.44,6.94-18.47,6.94c-2.83,0-5.11-0.64-6.84-1.92c-1.75-1.28-2.97-3.2-3.63-5.8
	c-1.26-4.95-0.19-11.44,3.12-19.44c0.94-2.27,2.02-4.54,3.25-6.81c-12.77,11.95-23.3,20.7-31.62,26.14
	c-8.51,5.56-15.48,8.31-20.98,8.31c-0.41,0-0.78-0.03-1.15-0.07c-0.33-0.03-0.67-0.06-1.03-0.06c-0.4,0-0.8-0.03-1.19-0.06
	c-0.25-0.02-0.5-0.04-0.75-0.05l-52.96,68.67l-18.7,3.48l64.62-83.66c-0.25-1.11-0.27-2.31-0.14-3.52c0.14-1.31,0.51-2.61,1.05-3.92
	c1.12-2.69,2.89-5.26,5.36-7.57c2.56-2.39,4.81-3.54,6.79-3.54h1.29l20-26.02c-0.94,0.92-1.94,1.9-2.99,2.93
	c-3.43,3.35-6.06,5.76-7.88,7.26c-0.89,0.87-1.79,1.77-2.72,2.68c-4.12,3.98-7.26,7.08-9.36,9.2l-1.81,1.75
	c-21.92,21.33-35.41,31.76-40.48,31.76c-1.81,0-3.23-0.47-4.28-1.37c-1.05-0.9-1.73-2.24-2.02-4.04c-0.53-3.32,0.34-7.79,2.72-13.54
	c3.16-7.63,8.62-16.14,16.47-25.53c6.97-8.36,14.24-15.29,21.66-20.71c-1.71,0.27-3.03,0.46-4,0.55c-1.53,0.25-2.56,0.25-3.35,0.25
	h-0.58l-0.04-0.01c-0.16-0.02-0.32-0.04-0.48-0.06c-0.71-0.1-1.32-0.18-1.8-0.18h-2.17c-0.34,0.28-0.7,0.58-1.05,0.88l-8.95,8.38
	l-5.78,5.59c-3.27,3.22-5.54,5.13-6.82,5.89c-3.53,3.38-6.39,6.08-8.66,8.16c-16.28,14.83-27.97,24.55-35.01,29.03
	c-7.29,4.69-13.44,6.94-18.47,6.94c-2.83,0-5.1-0.64-6.84-1.92c-1.75-1.28-2.97-3.2-3.63-5.8c-1.26-4.95-0.19-11.44,3.12-19.44
	c2.7-6.52,6.57-13.04,11.65-19.31c4.99-6.24,11.22-12.49,18.73-18.62c6.32-5.13,12.17-9.13,17.63-12.01
	c5.55-2.92,10.14-4.43,13.69-4.43c1.72,0,3.09,0.43,4.12,1.25c1.04,0.82,1.76,2.02,2.14,3.63c0.61,2.96-0.04,6.95-2.17,12.08
	c-3.33,8.05-9.5,15.61-18.41,22.4c-8.85,6.84-18.6,11.58-29.19,14.1c-3.41,5.34-5.78,9.24-7.3,11.81c-1.52,2.57-2.57,4.53-3.12,5.88
	c-0.33,0.8-0.53,1.48-0.59,2.05c-0.05,0.44-0.01,0.8,0.15,1.07c0.16,0.25,0.42,0.43,0.78,0.56c0.46,0.17,1.06,0.24,1.82,0.24
	c3.92,0,8.89-1.85,14.9-5.62c6.05-3.84,15.62-11.53,28.68-23.17c4.25-3.73,10.03-8.95,17.23-15.53c1.22-1.11,2.39-2.18,3.53-3.2
	c0.26-0.25,0.53-0.51,0.81-0.77l5.4-5.22l9.09-8.63l0.52-0.91c3.3-5.74,5.93-10.07,7.87-12.97c0.98-1.47,1.79-2.58,2.42-3.32
	c0.34-0.4,0.64-0.7,0.88-0.9c0.39-0.32,0.72-0.42,0.96-0.42c0.5,0,0.91,0.17,1.2,0.45c0.29,0.27,0.48,0.66,0.52,1.16v0.03v0.03
	c0,0.81-0.26,1.88-0.87,3.36c-0.02,0.05-0.06,0.12-0.11,0.23c-0.1,0.19-0.27,0.51-0.48,1.01l-0.01,0.03l-0.01,0.03
	c-0.38,0.72-0.62,1.33-0.82,1.81c-0.41,0.99-0.68,1.84-0.77,2.52c-0.07,0.51-0.07,0.92,0.13,1.18l0.02,0.03l0.02,0.03
	c0.19,0.35,0.72,0.61,1.53,0.91c0.98,0.36,2.35,0.69,4.1,0.99c2.41,0.45,4.37,1.06,5.89,1.83c1.61,0.81,2.74,1.8,3.45,2.96
	c0.67,1.17,0.96,2.6,0.84,4.29c-0.11,1.6-0.59,3.44-1.44,5.51c-1.66,4-8.32,12.65-20.06,26.16c-1.15,1.29-2.13,2.43-2.97,3.4
	c-0.86,0.99-1.57,1.81-2.15,2.44c-0.3,0.37-0.65,0.76-1.06,1.21c-0.42,0.47-0.9,1.01-1.43,1.64c-6.72,7.75-10.53,12.65-11.45,14.86
	c-0.08,0.19-0.15,0.39-0.17,0.56c-0.01,0.03-0.01,0.06-0.01,0.08l0.05,0.09c0.01,0.02,0.01,0.05,0.02,0.06
	c0.06,0.03,0.14,0.02,0.23,0.02c1.91,0,12.62-9.47,32.4-28.28l3.3-3.11C700.2,175.71,706.57,169.71,711.66,165.1 M975.67,105.76
	l0.01,0.03c0.41,1.96,0.05,4.46-1.25,7.6c-1.53,3.69-3.72,6.88-6.48,9.55c-2.95,2.77-5.56,4.04-7.93,4.04
	c-1.24,0-2.22-0.27-2.95-0.77c-0.77-0.52-1.29-1.3-1.56-2.35c-0.46-1.84,0.06-4.6,1.47-8c1.37-3.31,3.51-6.38,6.49-9.18
	c3.02-2.76,5.76-4.16,8.13-4.16c1.1,0,1.99,0.31,2.67,0.87C974.94,103.93,975.42,104.73,975.67,105.76 M679.29,35.77
	c-3.77,1.64-7.55,3.47-11.36,5.49c16.83,11.55,25.21,24.68,25.21,39.35c0,12.34-5.8,23.1-17.34,32.24
	c-11.54,9.18-25.04,13.73-40.55,13.73c-6.03,0-12.58-1.04-19.53-3.11c-6.95-2.02-10.39-4-10.39-5.82c0.17-0.59,0.63-0.89,1.32-0.89
	c0.58,0,1.43,0.3,2.7,0.89c6.95,3.36,13.95,5.04,21.02,5.04c12.81,0,23.78-4.69,32.91-14.17C672.4,99.07,677,87.77,677,74.68
	c0-11.31-4.71-21.38-14.13-30.26c-24.35,15.65-47.44,43.1-69.32,82.45c-13.21,23.85-25.33,40.98-36.36,51.49
	c-10.97,10.52-26.42,20-46.23,28.49c-23.43,9.83-44.4,14.76-62.77,14.76c-15.05,0-27.51-2.96-37.5-8.89
	c-9.99-5.92-14.99-13.33-14.99-22.22c0-4.89,1.72-9.13,5.11-12.74c3.45-3.55,7.52-5.33,12.23-5.33c6.84,0,10.22,3.26,10.22,9.82
	c0,3.26-1.15,6.07-3.45,8.39c-2.3,2.32-5.11,3.46-8.5,3.46c-5.8,0-8.61-2.57-8.39-7.8c0.11-2.12-0.11-3.16-0.69-3.16
	c-1.78,0-2.7,2.52-2.7,7.65c0,8,4.59,14.66,13.73,19.95c9.13,5.28,20.68,7.95,34.57,7.95c24.58,0,46.86-7.8,66.79-23.45
	c8.73-6.81,16.2-13.82,22.4-20.93c6.72-7.7,21.42-26.41,44.05-56.14c11.37-14.66,24.7-29.33,40.09-44.09
	c15.33-14.76,28.43-25.33,39.17-31.7c-17.52-12.79-43.19-19.21-77.07-19.21c-47.32,0-88.5,14.71-123.48,44.09
	c-28.72,24.14-43.07,46.85-43.07,68.13c0,10.81,4.02,19.4,12.12,25.77c8.04,6.37,19.01,9.53,32.79,9.53
	c22.51,0,45.83-9.28,69.89-27.89s36.07-36.73,36.07-54.26c0-13.97-8.33-20.98-25.04-20.98c-16.77,0-34.69,8.05-53.81,24.09
	c-19.13,16.05-28.66,31.1-28.66,45.18c0,3.5,1.38,6.47,4.08,8.99c2.7,2.52,5.86,3.75,9.42,3.75c1.95,0,2.93,0.44,2.93,1.28
	c0,0.79-1.09,1.19-3.22,1.19c-5.4,0-9.99-2.12-13.67-6.32c-3.73-4.15-5.57-9.33-5.57-15.4c0-15.01,9.59-29.67,28.77-43.94
	C502,72.12,521.7,64.96,541.86,64.96c19.3,0,28.95,7.65,28.95,23.01c0,18.71-12.29,37.62-36.81,56.73
	c-24.58,19.11-48.82,28.63-72.71,28.63c-15.56,0-28.03-4.05-37.39-12.1s-14.07-18.81-14.07-32.34c0-27.25,17.92-52.18,53.76-74.7
	c35.84-22.51,75.47-33.77,118.88-33.77c32.96,0,60.65,6.32,83.1,18.96c4.16-2.24,8.3-4.24,12.41-6.02
	C679.89,32.61,681.4,34.89,679.29,35.77"/>
</svg>
