<?xml version="1.0" encoding="utf-8"?>
<!-- Generator: Adobe Illustrator 27.0.1, SVG Export Plug-In . SVG Version: 6.00 Build 0)  -->
<svg version="1.1" id="Ebene_1" xmlns="http://www.w3.org/2000/svg" xmlns:xlink="http://www.w3.org/1999/xlink" x="0px" y="0px"
	 viewBox="0 0 1488.75 314.93" style="enable-background:new 0 0 1488.75 314.93;" xml:space="preserve">
<style type="text/css">
	.st0{fill-rule:evenodd;clip-rule:evenodd;fill:#1D1D1B;}
	.st1{fill-rule:evenodd;clip-rule:evenodd;fill:#F7C335;}
</style>
<path class="st0" d="M613.05,189.68c7.23-7.11,15.74-18.81,18.98-27.88c1.66-4.65,2.23-8.81,1.49-11.88
	c-0.38-1.55-1.11-2.87-2.24-3.79c-1.14-0.93-2.61-1.39-4.34-1.39c-7.76,0-19.98,5.7-34.06,18.35c-4.31,3.9-10.08,9.32-12.98,12.35
	c-0.26,0.27-0.61,0.64-1.07,1.14c-1.06,1.13-2.76,2.94-5.67,5.83c-12.9,12.8-22.66,19.44-29.43,21.12l37.67-52.63
	c4.25-3.39,8.43-6.7,12.53-9.94c31.3-24.76,57.71-45.59,64.85-65.6c1.19-3.33,1.8-6.17,1.44-8.24c-0.19-1.07-0.66-2-1.49-2.64
	c-0.82-0.63-1.89-0.9-3.13-0.9c-4.53,0-10.24,3.37-16.32,8.35c-6.16,5.05-12.92,11.95-19.59,19.42
	c-13.33,14.94-26.34,32.23-33.39,41.62c-3.32,4.45-5.67,6.51-9.61,9.97c-3.05,2.68-7.02,6.16-13.07,12.15
	c-11.44,11.34-17.2,17.19-19.74,19.84c-0.35,0.37-1.04,1.12-1.99,2.16c-1.42,1.56-3.48,3.81-6.3,6.43
	c-3.13,2.92-6.12,4.34-8.41,4.34c-0.57,0-1.01-0.15-1.35-0.4c-0.34-0.25-0.63-0.63-0.83-1.17c-0.4-1.1-0.37-2.82,0.4-4.99
	c3.11-8.71,11.01-14.66,18.12-19.97c5.08-3.79,10.1-7.48,11.6-11.67c0.24-0.68,0.4-1.33,0.42-1.92c0.02-0.61-0.11-1.2-0.46-1.7
	c-0.35-0.51-0.87-0.83-1.46-1.02c-0.58-0.19-1.25-0.26-2.01-0.26c-3.26,0-6.46,2.12-9.27,4.88c-2.84,2.8-5.42,6.42-7.45,9.78
	c-1.99,3.33-6.13,7.12-12.1,12.52c-1.98,1.8-4.13,3.75-6.44,5.9c5.36-6.92,11.11-15.24,13.2-21.08c1.01-2.83,1.45-5.7,1.03-7.93
	c-0.21-1.12-0.65-2.15-1.41-2.9c-0.78-0.77-1.82-1.18-3.06-1.18c-5.1,0-12.54,5.98-23.16,16.32c-1.43,1.43-2.96,2.96-4.49,4.47
	c-1.32,1.31-2.62,2.6-3.88,3.79c-0.41,0.39-0.95,0.92-1.58,1.63l-0.28,0.31c-2.26,2.28-4.78,4.86-5.28,5.83
	c-9.94,10.77-18.44,18.83-25.53,24.2c-7.16,5.42-12.7,7.96-16.72,7.96c-1.29,0-2.27-0.21-2.98-0.57c-0.69-0.35-1.16-0.86-1.45-1.55
	c-0.61-1.45-0.46-3.85,0.81-7.4c1.98-5.55,6.4-12.5,13.42-20.99c14.35-3.66,25.12-7.58,32.31-11.8c7.24-4.3,12.06-9.58,14.29-15.8
	c0.49-1.38,0.75-2.67,0.76-3.89c0.01-1.23-0.24-2.36-0.75-3.4s-1.23-1.85-2.16-2.4c-0.93-0.55-2.01-0.8-3.21-0.8
	c-5.24,0-12.94,3.13-22.98,9.13c-19.18,11.47-31.58,24.84-37.04,40.13c-2.29,6.41-2.82,11.89-1.39,16.38
	c0.71,2.25,1.83,4.01,3.4,5.2c1.57,1.2,3.51,1.76,5.76,1.76c4.74,0,10.77-2.83,18.01-8.18c7.28-5.38,15.93-13.43,25.96-24.11
	l1.46-1.57c0.61-0.41,1.64-1.51,2.73-2.64c2.5-2.58,7.15-7.4,15.9-15.72c10.05-9.51,14.6-11.67,16.45-11.67
	c0.28,0,0.47,0.06,0.59,0.13c0.12,0.07,0.21,0.16,0.27,0.28c0.07,0.13,0.12,0.32,0.11,0.59c0,0.27-0.06,0.6-0.2,0.98
	c-1.26,3.52-6.52,9.86-17.64,23.19c-7.07,8.46-16.36,19.6-28.17,34.33l-1.43,1.78l13.46-1.7l0.23-0.25
	c11.54-12.54,22.3-23.92,32.83-33.75c-1.26,2.07-2.33,4.32-3.25,6.9c-0.52,1.46-0.77,2.81-0.76,4.03s0.26,2.32,0.74,3.24
	c0.48,0.93,1.18,1.66,2.04,2.16s1.85,0.75,2.9,0.75c3.48,0,7.97-2.03,13.24-7.39c0.59-0.63,1.28-1.34,2-2.09
	c1.42-1.47,2.93-3.05,3.89-4.07c0.66-0.71,1.65-1.75,2.93-3.11c1.96-2.07,4.59-4.85,7.91-8.14c1.75-1.71,3.39-3.36,5.02-5.01
	c3.22-3.24,6.42-6.47,10.51-10.19l-30.96,40.77c-0.09-0.04-0.18-0.08-0.27-0.11c-0.45-0.15-0.95-0.22-1.43-0.22
	c-1.65,0-3.29,0.92-4.66,2.27c-1.38,1.37-2.58,3.27-3.36,5.45c-0.46,1.28-0.85,2.62-0.99,3.88c-0.11,1.02-0.05,2.07,0.36,3
	l-49.64,66.09l13.35-2.29l45.41-61.28c9.07-2,19.84-9.2,30.19-18.93c4.42-4.16,10.8-10.55,12.61-12.81c-0.06,0.12-0.13,0.26-0.2,0.4
	c-0.84,1.68-2.3,4.57-4.4,10.48c-2.22,6.23-3.2,11.5-2.71,15.28c0.24,1.9,0.87,3.51,1.98,4.64c1.13,1.15,2.67,1.73,4.51,1.73
	c9.51,0,19.3-8.32,27.12-16.15c0.55,0.12,1.17,0.1,1.8,0.1c6.76,0,14.12-4.08,20.44-10.12c4.07-3.89,5.62-5.53,6.28-6.31
	c0.26-0.31,0.6-0.66,1.04-1.12c2.49-2.58,7.15-7.39,15.91-15.73c10.05-9.51,14.6-11.67,16.45-11.67c0.28,0,0.47,0.06,0.59,0.13
	c0.12,0.07,0.21,0.16,0.27,0.28c0.07,0.13,0.12,0.32,0.11,0.59c0,0.27-0.06,0.6-0.2,0.98c-1.26,3.52-6.52,9.86-17.64,23.18
	c-7.07,8.46-16.36,19.6-28.17,34.33l-1.43,1.78l13.46-1.7l0.23-0.25c11.54-12.54,22.3-23.92,32.83-33.75
	c-1.26,2.07-2.33,4.32-3.25,6.9c-0.52,1.46-0.76,2.81-0.76,4.03c0.01,1.22,0.26,2.32,0.74,3.24c0.48,0.93,1.18,1.66,2.04,2.16
	s1.85,0.75,2.9,0.75c3.48,0,7.97-2.03,13.24-7.39c0.59-0.62,1.27-1.34,1.99-2.08c1.43-1.49,2.97-3.09,3.93-4.13
	c0.47-0.51,1.13-1.2,2.04-2.15c2.29-2.38,6.06-6.29,12.21-12.26c8.58-8.3,16.21-14.64,20.3-14.64c0.36,0,0.58,0.04,0.7,0.09
	c0.09,0.04,0.09,0.05,0.09,0.05c0.05,0.1,0.13,0.55-0.33,1.84c-0.88,2.46-9.11,12.62-25.72,32.99
	c-5.74,7.04-12.39,15.21-19.93,24.52l-1.44,1.78l13.81-1.7l0.23-0.28c4.13-4.91,17.41-19.8,30.61-33.46
	c6.6-6.83,13.16-13.34,18.54-18.14c5.6-4.99,9.37-7.61,10.83-7.69c0.18,0.04,0.28,0.09,0.32,0.13c0.04,0.03,0.08,0.08,0.11,0.2
	c0.07,0.29,0.04,0.87-0.32,1.87c-1.96,5.5-19.87,27.54-32.9,43.54c-5.04,6.19-9.22,11.32-11.04,13.77l-1.3,1.74l13.37-1.7l0.23-0.28
	c3.88-4.68,16.96-19.57,30.24-33.28c6.64-6.86,13.31-13.41,18.9-18.24c5.83-5.03,10.01-7.77,11.9-7.77c0.31,0,0.47,0.06,0.53,0.09
	c0.05,0.03,0.06,0.05,0.07,0.06c0.04,0.08,0.06,0.31-0.07,0.68c-1.12,3.12-5.26,7.52-10.78,13.32
	c-7.98,8.38-18.24,19.12-22.45,30.93c-1.56,4.38-2.4,8.21-2.15,11c0.13,1.41,0.54,2.65,1.37,3.55c0.42,0.45,0.93,0.8,1.53,1.03
	c0.59,0.23,1.25,0.33,1.96,0.33c5.11,0,12.94-6.51,25.12-18.14c3.42-3.27,7.25-6.96,10.16-9.88c-0.87,1.95-1.66,3.9-2.38,5.92
	c-1.84,5.16-3.27,10.53-3.12,14.65c0.07,2.07,0.55,3.94,1.68,5.31c0.57,0.69,1.3,1.23,2.19,1.6c0.88,0.36,1.89,0.54,3.04,0.54
	c5.92,0,17.72-10.52,25.13-17.39c-0.04,0.11-0.08,0.22-0.12,0.33c-2.24,6.29-3.05,10.46-2.6,13.11c0.23,1.38,0.82,2.41,1.77,3.08
	c0.93,0.65,2.08,0.87,3.29,0.87c4.95,0,14.18-7.67,25.37-18.37c4.79-4.71,11.19-11.12,13.44-13.54c0.21-0.22,0.47-0.5,0.8-0.85
	c1.56-1.64,4.57-4.8,10.71-10.86c13.24-13.07,19.01-17.37,23.11-17.37c0.2,0,0.32,0.04,0.39,0.09c0.07,0.04,0.13,0.1,0.18,0.22
	c0.11,0.26,0.17,0.85-0.2,1.9c-1.53,4.28-17.09,22.4-30.64,38.14c-7.35,8.53-13.84,16.07-16.1,19.18l-1.24,1.71l13.98-1.67
	l0.23-0.29c4.36-5.35,18.32-20.22,32.21-33.77c14.52-14.17,27.58-25.51,30.97-25.51c0.25,0,0.39,0.05,0.46,0.09
	c0.06,0.03,0.09,0.07,0.12,0.14c0.08,0.17,0.12,0.59-0.14,1.29c-0.71,2-4.17,5.67-9.29,11.03c-8.26,8.64-19.81,20.7-24.03,32.54
	c-1.49,4.16-2.28,7.99-2.01,10.83c0.14,1.43,0.55,2.71,1.38,3.64c0.42,0.47,0.93,0.84,1.53,1.08c0.6,0.24,1.26,0.36,1.97,0.36
	c4.29,0,12.7-6.73,23.22-16.53c2.23-2.07,9.01-8.76,13.14-13.06c-0.38,0.86-0.8,1.89-1.25,3.13c-1.98,5.54-3.58,11.98-3.36,17.09
	c0.11,2.56,0.68,4.9,2.01,6.62c0.67,0.87,1.52,1.56,2.57,2.04c1.04,0.47,2.26,0.71,3.64,0.71c8.66,0,19.11-6.74,35.11-22.46
	c2-1.96,3.93-3.89,5.57-5.55c-0.32,0.75-0.65,1.59-0.96,2.48c-2.15,6.02-3.38,12.25-2.88,17.03c0.25,2.4,0.95,4.53,2.28,6.07
	c0.67,0.78,1.49,1.39,2.47,1.81c0.97,0.42,2.08,0.63,3.32,0.63h0.01h0.01c8.17-0.24,16.35-4.8,28.38-15.33
	c6.87-6.01,17.45-16.84,17.89-18.07c0.18-0.5,0.3-1.07,0.16-1.58c-0.07-0.28-0.24-0.57-0.52-0.77c-0.27-0.2-0.58-0.26-0.84-0.26
	c-0.66,0-1.34,0.73-1.51,0.9c-0.47,0.45-1.11,1.12-1.93,1.99c-2.03,2.14-5.36,5.64-10.66,10.66
	c-14.92,13.73-24.78,17.85-28.85,17.87c-1.17-0.06-1.97-0.27-2.5-0.6c-0.49-0.31-0.82-0.76-0.98-1.48
	c-0.35-1.59,0.15-4.31,1.76-8.84c0.84-2.34,1.96-4.68,3.14-7.09c5.48-1.45,14.93-4.71,23.86-9.7c9.11-5.1,17.87-12.12,21.06-21.05
	c1.18-3.31,1.41-6.31,0.55-8.55c-0.43-1.14-1.15-2.07-2.14-2.72s-2.2-0.97-3.58-0.97c-9.31,0-23.29,9.24-36.88,22.03
	c-1.4,1.32-5.51,5.3-7.98,7.73c-0.11,0.11-0.44,0.46-1.28,1.37c-1.57,1.68-5.11,5.48-13.63,13.63
	c-11.04,10.56-20.98,16.24-26.32,16.24c-1.11,0-1.91-0.18-2.48-0.46c-0.54-0.27-0.9-0.66-1.11-1.2c-0.46-1.15-0.32-3.09,0.74-6.05
	c4.61-12.92,13.01-25.14,21.48-34.13c4.23-4.49,8.47-8.15,12.23-10.69c3.81-2.57,7-3.87,9.17-3.87c0.54,0,0.89,0.11,1.13,0.24
	c0.22,0.12,0.37,0.29,0.47,0.5c0.21,0.44,0.21,1.15-0.07,1.93c-0.74,2.07-1.86,2.67-3.27,3.4c-1.66,0.87-3.55,1.88-4.78,5.31
	c-0.55,1.55-0.85,3.2-0.5,4.53c0.18,0.69,0.55,1.33,1.17,1.78c0.61,0.45,1.38,0.66,2.27,0.66c1.17,0,2.31-0.42,3.36-1.06
	s2.06-1.53,2.96-2.54c1.81-2.01,3.33-4.58,4.15-6.87c0.68-1.9,1.02-3.63,1.02-5.16c0-1.54-0.35-2.89-1.06-4.01s-1.75-1.96-3.03-2.5
	s-2.79-0.8-4.48-0.8c-4.82,0-10.2,1.68-16.23,5.26c-6.02,3.58-12.72,9.08-20.2,16.79c-4.23,4.36-6.47,6.72-7.71,8.02
	c-0.25,0.26-0.66,0.7-1.43,1.52c-1.57,1.66-4.64,4.93-11.25,11.35c-10.75,10.45-20.11,18.07-23.36,18.07c-0.17,0-0.24-0.05-0.29-0.1
	c-0.07-0.08-0.17-0.24-0.22-0.56c-0.11-0.65,0.01-1.63,0.39-2.69c1.23-3.43,7.55-11.46,20.09-25.61
	c4.66-5.25,10.45-12.03,13.3-20.02c0.88-2.48,1.44-5.32,1.2-7.6c-0.12-1.14-0.45-2.24-1.13-3.07c-0.34-0.42-0.78-0.76-1.29-1
	c-0.52-0.23-1.09-0.35-1.72-0.35c-6.81,0-26.22,18.92-38.37,30.79c4.81-6.02,9.58-12.82,11.55-18.31c1.23-3.46,1.86-6.45,1.53-8.65
	c-0.17-1.12-0.6-2.11-1.39-2.81c-0.8-0.7-1.86-1.02-3.08-1.02c-6.94,0-16.85,8.79-29.09,21.38c-0.57,0.59-1.24,1.26-1.95,1.98
	c-2.48,2.52-5.52,5.61-7.09,7.33c-0.23,0.26-0.57,0.6-1.06,1.11c-0.48,0.5-1.09,1.14-1.89,1.96c-7.55,7.79-14.59,14.64-20.34,19.54
	c-5.96,5.07-10.15,7.69-12.18,7.69c-0.44,0-0.7-0.07-0.83-0.14c-0.11-0.06-0.15-0.12-0.18-0.19c-0.09-0.23-0.09-0.75,0.23-1.64
	c2.78-7.79,36.23-48.43,43.71-56.31l1.6-1.69l-10.39,0.59c-1.47,0.1-2.56,0.61-3.76,1.77c-1.14,1.1-2.47,2.86-4.37,5.37
	c-1.01,1.33-2.2,2.9-3.64,4.76c0.13-0.34,0.26-0.69,0.38-1.04c1.12-3.14,1.66-6.15,1.18-8.44c-0.24-1.17-0.76-2.2-1.66-2.94
	c-0.89-0.74-2.07-1.1-3.46-1.1c-5.95,0-13.34,3.04-20.96,7.88c-7.65,4.86-15.66,11.62-22.84,19.24c-1.28,1.36-2.16,2.25-2.78,2.87
	c-0.13,0.13-0.2,0.2-0.27,0.26c-0.36,0.31-0.99,0.94-2.1,2.07c-2.09,2.11-6.15,6.24-14.45,14.26c-9.46,8.96-17.1,14.42-19.57,14.42
	c-0.21,0-0.27-0.06-0.31-0.1c-0.07-0.08-0.16-0.27-0.2-0.64c-0.07-0.74,0.12-1.84,0.54-3.04c2.19-5.09,7.79-11.42,14.03-18.43
	c7.37-8.28,15.56-17.46,18.55-25.85c1.49-4.17,1.95-7.29,1.52-9.43c-0.22-1.1-0.67-1.99-1.39-2.61c-0.72-0.62-1.63-0.89-2.58-0.89
	c-4.37,0-11.88,5.9-19.29,12.69c-6.42,5.89-13.18,12.86-18.64,18.57c4.47-6.14,9.09-13.15,11.43-19.71
	c1.31-3.67,1.83-6.47,1.42-8.41c-0.21-1.01-0.69-1.84-1.47-2.39c-0.76-0.54-1.71-0.75-2.73-0.75c-3.92,0-10.61,5.33-17.32,11.56
	c-6.48,6.01-13.49,13.37-19.2,19.41c5.08-6.75,10.37-14.4,12.74-21.02c1.04-2.93,1.3-5.38,0.56-7.17c-0.38-0.92-1.02-1.64-1.89-2.11
	c-0.85-0.46-1.87-0.67-3.01-0.67c-4.41,0-11.5,4.25-23.25,16.1c-2.09,2.11-3.98,4.02-5.67,5.72c-4.1,4.13-7.03,7.08-8.56,8.69
	c-0.39,0.41-0.96,1.04-1.69,1.83c-1.42,1.56-3.48,3.81-6.3,6.43c-3.13,2.92-6.12,4.34-8.41,4.34c-0.57,0-1.01-0.15-1.35-0.4
	c-0.34-0.25-0.63-0.63-0.83-1.17c-0.4-1.1-0.38-2.82,0.4-4.99c3.11-8.71,11.01-14.66,18.12-19.97c5.08-3.79,10.1-7.48,11.6-11.67
	c0.24-0.68,0.4-1.33,0.41-1.92c0.02-0.61-0.11-1.2-0.46-1.7c-0.35-0.51-0.87-0.83-1.46-1.02c-0.58-0.19-1.25-0.26-2.01-0.26
	c-3.26,0-6.47,2.12-9.27,4.88c-2.84,2.8-5.43,6.42-7.46,9.78c-1.99,3.33-6.13,7.12-12.09,12.53c-1.98,1.79-4.13,3.75-6.44,5.9
	c5.36-6.92,11.11-15.24,13.2-21.08c1.01-2.83,1.45-5.7,1.03-7.93c-0.21-1.12-0.65-2.15-1.41-2.9c-0.78-0.77-1.82-1.18-3.06-1.18
	c-5.1,0-12.54,5.98-23.16,16.32c-1.47,1.47-3.04,3.03-4.6,4.58c-3.78,3.75-7.53,7.48-9.5,9.58c-0.32,0.34-0.85,0.89-1.8,1.87
	c-0.44,0.45-0.97,1-1.6,1.65C625.13,185.27,618.22,189.58,613.05,189.68z M981.48,182.87c3.67-6.13,10.25-14.08,17.04-20.73
	c7.63-7.47,15.04-12.81,18.93-12.81c0.44,0,0.73,0.07,0.9,0.16c0.16,0.08,0.25,0.18,0.31,0.33c0.16,0.38,0.17,1.17-0.35,2.63
	c-2.86,8.01-9.69,15.26-17.32,20.77C994.21,178.13,986.93,181.55,981.48,182.87 M496.13,146.88c0.47-1.31,0.45-2.02,0.31-2.34
	c-0.05-0.13-0.13-0.21-0.27-0.28c-0.16-0.08-0.43-0.15-0.86-0.15c-2.78,0-7.76,2.78-15.2,8.96c-6.66,5.55-13.76,12.6-21.32,21.13
	c8.35-2.95,16.03-6.9,23.03-11.85C489.76,156.75,494.45,151.6,496.13,146.88 M582.75,198.48c3.38-9.48,11.57-21.81,20.37-31.8
	c4.4-4.99,8.92-9.35,13.04-12.46c4.17-3.15,7.75-4.88,10.3-4.88c0.84,0,1.35,0.24,1.68,0.57c0.35,0.35,0.61,0.9,0.72,1.72
	c0.22,1.67-0.23,4.08-1.2,6.79c-3.67,10.28-11.69,22.15-20.42,31.47c-4.36,4.65-8.88,8.63-13.09,11.45
	c-4.24,2.83-8.05,4.4-11.01,4.4c-0.44,0-0.74-0.1-0.95-0.25c-0.19-0.14-0.39-0.39-0.5-0.88
	C581.43,203.57,581.61,201.67,582.75,198.48 M837.62,156.36c-2.96,8.28-12.43,20.65-22.46,31.03c-5,5.16-10.09,9.79-14.51,13.11
	c-4.53,3.41-8.09,5.24-10.11,5.24c-0.47,0-0.72-0.13-0.86-0.27c-0.16-0.15-0.31-0.44-0.37-0.95c-0.13-1.06,0.17-2.73,0.94-4.88
	c2.89-8.09,11.21-20.72,20.52-31.35c4.65-5.3,9.5-10.07,14-13.5c4.55-3.47,8.57-5.44,11.57-5.44c0.69,0,1.14,0.18,1.43,0.43
	c0.3,0.25,0.53,0.65,0.65,1.25C838.68,152.25,838.42,154.12,837.62,156.36 M588.34,140.67c12.36-17.1,25.09-34.53,36.37-48.04
	c6.13-7.34,11.81-13.49,16.76-17.81c5.03-4.38,9.08-6.66,11.98-6.66c0.67,0,1.16,0.09,1.5,0.24c0.33,0.14,0.53,0.32,0.65,0.55
	c0.13,0.24,0.22,0.6,0.19,1.14c-0.03,0.55-0.18,1.25-0.49,2.11c-7.42,20.78-38.31,45.53-59.49,62.46
	C593.14,136.8,590.62,138.81,588.34,140.67 M529.1,55.07c-3.26,1.41-6.53,3-9.82,4.75c14.54,9.99,21.79,21.34,21.79,34.01
	c0,10.67-5.01,19.97-14.99,27.86c-9.98,7.94-21.64,11.86-35.04,11.86c-5.21,0-10.87-0.9-16.88-2.69c-6.01-1.75-8.98-3.46-8.98-5.03
	c0.15-0.51,0.55-0.77,1.14-0.77c0.5,0,1.24,0.25,2.33,0.77c6.01,2.9,12.06,4.35,18.17,4.35c11.07,0,20.55-4.05,28.44-12.25
	c7.89-8.15,11.86-17.92,11.86-29.23c0-9.77-4.07-18.48-12.21-26.16c-21.04,13.53-41,37.25-59.91,71.26
	c-11.42,20.61-21.89,35.42-31.42,44.51c-9.48,9.09-22.83,17.28-39.96,24.62c-20.25,8.49-38.37,12.76-54.25,12.76
	c-13,0-23.78-2.56-32.41-7.68c-8.64-5.12-12.95-11.52-12.95-19.2c0-4.22,1.49-7.9,4.42-11.01c2.98-3.07,6.5-4.61,10.57-4.61
	c5.91,0,8.83,2.82,8.83,8.49c0,2.82-0.99,5.25-2.98,7.25c-1.99,2.01-4.42,2.99-7.35,2.99c-5.01,0-7.45-2.22-7.25-6.74
	c0.1-1.83-0.1-2.73-0.6-2.73c-1.54,0-2.33,2.18-2.33,6.61c0,6.91,3.97,12.67,11.86,17.24c7.89,4.57,17.87,6.87,29.88,6.87
	c21.24,0,40.5-6.74,57.73-20.27c7.54-5.89,14-11.95,19.36-18.09c5.81-6.66,18.51-22.83,38.07-48.52
	c9.83-12.67,21.34-25.35,34.65-38.1c13.25-12.76,24.57-21.89,33.85-27.4c-15.14-11.05-37.33-16.6-66.61-16.6
	c-40.9,0-76.49,12.72-106.72,38.11c-24.82,20.87-37.23,40.5-37.23,58.89c0,9.35,3.48,16.77,10.47,22.27
	c6.95,5.51,16.43,8.24,28.34,8.24c19.46,0,39.61-8.02,60.41-24.11c20.8-16.09,31.17-31.75,31.17-46.9c0-12.08-7.2-18.13-21.64-18.13
	c-14.49,0-29.98,6.95-46.51,20.82s-24.77,26.88-24.77,39.04c0,3.03,1.19,5.59,3.52,7.76c2.33,2.18,5.06,3.24,8.14,3.24
	c1.69,0,2.53,0.38,2.53,1.11c0,0.68-0.94,1.02-2.78,1.02c-4.67,0-8.64-1.84-11.81-5.46c-3.23-3.58-4.81-8.06-4.81-13.31
	c0-12.97,8.29-25.65,24.87-37.98s33.61-18.52,51.03-18.52c16.68,0,25.02,6.62,25.02,19.89c0,16.17-10.62,32.52-31.82,49.03
	c-21.24,16.51-42.19,24.75-62.84,24.75c-13.45,0-24.22-3.5-32.31-10.45c-8.09-6.96-12.16-16.26-12.16-27.95
	c0-23.55,15.49-45.1,46.46-64.56S407.89,41.8,445.42,41.8c28.49,0,52.42,5.46,71.83,16.38c3.6-1.93,7.18-3.67,10.73-5.21
	C529.62,52.34,530.93,54.31,529.1,55.07"/>
<path class="st1" d="M1189.89,48.75l14.86,14.11c-2.69,0.62-4.89,1.16-7.1,1.65c-19.01,4.21-37.5,10.05-55.33,17.92
	c-8.66,3.83-17.15,8.02-24.52,14.08c-2.31,1.9-4.47,4.08-6.27,6.46c-4.48,5.91-3.94,12.16,1.58,17.1c2.56,2.29,5.56,4.16,8.52,5.95
	c9.6,5.81,19.92,10.19,30.13,14.78c9.28,4.18,18.45,8.55,26.99,14.16c4.46,2.93,8.65,6.18,12.08,10.32
	c6.89,8.31,7.59,17.72,2.01,27.33c-4.15,7.14-9.93,12.83-16.21,18.03c-12.99,10.75-27.37,19.38-42.34,26.96
	c-15.54,7.87-31.35,15.21-47.05,22.77c-2.76,1.33-5.53,2.63-8.35,3.85c-0.61,0.27-1.56,0.37-2.12,0.09
	c-10.6-5.48-21.58-10.04-32.9-13.8c-0.18-0.06-0.34-0.19-0.83-0.47c4.74-1.86,9.15-3.6,13.57-5.33
	c19.86-7.74,39.77-15.34,58.96-24.67c12.94-6.29,25.52-13.2,37.3-21.48c3.11-2.19,6.07-4.73,8.6-7.56
	c5.56-6.24,5.16-12.83-0.68-18.81c-3.84-3.92-8.39-6.88-13.19-9.39c-8.83-4.62-17.78-9-26.64-13.56
	c-7.69-3.96-15.24-8.14-21.94-13.69c-3.97-3.29-7.35-7.09-9.94-11.57c-5.09-8.82-4.9-17.6,0.32-26.3
	c4.1-6.83,9.87-12.08,16.23-16.71c11.41-8.31,24.01-14.36,37.13-19.39c9.74-3.74,19.85-6.78,30.06-9.03
	C1180.46,50.85,1189.89,48.75,1189.89,48.75z"/>
</svg>
